<svg width="167" height="20" viewBox="0 0 167 20" fill="none" xmlns="http://www.w3.org/2000/svg">
<path d="M6.97577 0H12.3943C12.9936 0 13.3681 0.260707 13.518 0.782121L19.0863 15.9031C19.103 15.9505 19.1113 16.0295 19.1113 16.1401C19.1113 16.2349 19.053 16.3376 18.9365 16.4482C18.8366 16.543 18.7118 16.5904 18.5619 16.5904H13.9425C13.4431 16.5904 13.1184 16.3929 12.9686 15.9979L12.3693 14.4337H7.00074L5.42762 16.5904C5.2778 16.9855 5.92702 16.5904 5.42762 16.5904H0.808133C0.658312 16.5904 0.525138 16.543 0.40861 16.4482C0.308729 16.3376 0.258789 16.2349 0.258789 16.1401C0.258789 16.0295 0.267112 15.9505 0.283759 15.9031L5.85211 0.782121C6.00194 0.260707 6.37649 0 6.97577 0Z" fill="#575458"/>
<path d="M22.0866 11.5185H24.5837C25.416 11.5185 25.8738 11.4079 25.957 11.1867L20.139 0.73472C20.1223 0.687319 20.114 0.632017 20.114 0.568815C20.1806 0.189605 20.3887 0 20.7383 0H25.957C26.3066 0 26.573 0.189605 26.7561 0.568815L29.0783 5.23784L30.9261 0.568815C31.0926 0.189605 31.3756 0 31.7751 0H36.9439C37.0937 0 37.2269 0.0553017 37.3434 0.165905C37.46 0.260707 37.5182 0.37131 37.5182 0.497714C37.5182 0.624118 37.5099 0.70312 37.4933 0.73472L32.5242 11.7555C31.6586 13.6832 30.743 14.9709 29.7775 15.6187C28.8286 16.2665 27.3054 16.5904 25.2079 16.5904H22.0866C21.9035 16.5904 21.7454 16.5272 21.6122 16.4008C21.479 16.2744 21.4124 16.1243 21.4124 15.9505V12.1584C21.4124 11.9846 21.479 11.8345 21.6122 11.7081C21.7454 11.5817 21.9035 11.5185 22.0866 11.5185Z" fill="#575458"/>
<path d="M42.0763 0H55.7599C55.943 0 56.1012 0.0632018 56.2344 0.189605C56.3675 0.316009 56.4341 0.466113 56.4341 0.639917V11.3763H57.5079C57.691 11.3763 57.8491 11.4395 57.9823 11.5659C58.1155 11.6923 58.182 11.8424 58.182 12.0162V18.8657C58.182 19.0395 58.1155 19.1896 57.9823 19.316C57.8491 19.4424 57.691 19.5056 57.5079 19.5056H52.6137C52.4306 19.5056 52.2724 19.4424 52.1393 19.316C52.0061 19.1896 51.9395 19.0395 51.9395 18.8657V16.5904H45.1476V18.8657C45.1476 19.0395 45.081 19.1896 44.9478 19.316C44.8147 19.4424 44.6565 19.5056 44.4734 19.5056H39.5792C39.3961 19.5056 39.238 19.4424 39.1048 19.316C38.9716 19.2054 38.905 19.0553 38.905 18.8657V12.0162C38.905 11.8424 38.9716 11.6923 39.1048 11.5659C39.238 11.4395 39.3961 11.3763 39.5792 11.3763H39.6791C40.1785 11.3763 40.5864 11.2183 40.9027 10.9023C41.2356 10.5863 41.4021 10.136 41.4021 9.55136V0.639917C41.4021 0.466113 41.4687 0.316009 41.6018 0.189605C41.735 0.0632018 41.8932 0 42.0763 0ZM50.1916 5.21414H47.6446V9.57506C47.6446 10.4599 47.5697 11.0603 47.4199 11.3763H50.1916V5.21414Z" fill="#575458"/>
<path d="M61.7296 0H66.2492C66.4323 0 66.5904 0.0632018 66.7236 0.189605C66.8568 0.316009 66.9234 0.466113 66.9234 0.639917V7.11019L71.1433 0.545115C71.3597 0.181705 71.701 0 72.1671 0H76.1124C76.2955 0 76.4537 0.0632018 76.5868 0.189605C76.72 0.316009 76.7866 0.466113 76.7866 0.639917V15.9505C76.7866 16.1243 76.72 16.2744 76.5868 16.4008C76.4537 16.5272 76.2955 16.5904 76.1124 16.5904H71.5928C71.4097 16.5904 71.2515 16.5272 71.1184 16.4008C70.9852 16.2744 70.9186 16.1243 70.9186 15.9505V10.0017L66.6986 16.0453C66.4489 16.4087 66.1077 16.5904 65.6749 16.5904H61.7296C61.5465 16.5904 61.3883 16.5272 61.2551 16.4008C61.122 16.2744 61.0554 16.1243 61.0554 15.9505V0.639917C61.0554 0.466113 61.122 0.316009 61.2551 0.189605C61.3883 0.0632018 61.5465 0 61.7296 0Z" fill="#575458"/>
<path d="M79.8271 0H94.4596C94.6428 0 94.8009 0.0632018 94.9341 0.189605C95.0673 0.316009 95.1338 0.466113 95.1338 0.639917V4.45572C95.1338 4.62952 95.0673 4.77963 94.9341 4.90603C94.8009 5.03244 94.6428 5.09564 94.4596 5.09564H90.3146V15.9505C90.3146 16.1243 90.248 16.2744 90.1148 16.4008C89.9817 16.5272 89.8235 16.5904 89.6404 16.5904H84.6464C84.4632 16.5904 84.3051 16.5272 84.1719 16.4008C84.0387 16.2744 83.9722 16.1243 83.9722 15.9505V5.09564H79.8271C79.644 5.09564 79.4858 5.03244 79.3527 4.90603C79.2195 4.77963 79.1529 4.62952 79.1529 4.45572V0.639917C79.1529 0.466113 79.2195 0.316009 79.3527 0.189605C79.4858 0.0632018 79.644 0 79.8271 0Z" fill="#575458"/>
<path d="M103.504 11.9688H111.195C111.378 11.9688 111.536 12.032 111.669 12.1584C111.802 12.2848 111.869 12.4349 111.869 12.6087V15.9505C111.869 16.1243 111.802 16.2744 111.669 16.4008C111.536 16.5272 111.378 16.5904 111.195 16.5904H98.1851C98.002 16.5904 97.8438 16.5272 97.7106 16.4008C97.5775 16.2744 97.5109 16.1243 97.5109 15.9505V0.639917C97.5109 0.466113 97.5775 0.316009 97.7106 0.189605C97.8438 0.0632018 98.002 0 98.1851 0H110.995C111.178 0 111.336 0.0632018 111.469 0.189605C111.602 0.316009 111.669 0.466113 111.669 0.639917V3.98171C111.669 4.15551 111.602 4.30562 111.469 4.43202C111.336 4.55842 111.178 4.62162 110.995 4.62162H103.504V6.11476H110.445C110.629 6.11476 110.787 6.17797 110.92 6.30437C111.053 6.43077 111.12 6.58088 111.12 6.75468V9.83576C111.12 10.0096 111.053 10.1597 110.92 10.2861C110.787 10.4125 110.629 10.4757 110.445 10.4757H103.504V11.9688Z" fill="#575458"/>
<path d="M115.547 0H122.988C125.385 0 127.258 0.489813 128.607 1.46944C129.955 2.44907 130.629 3.8948 130.629 5.80666C130.629 7.71851 129.955 9.13264 128.607 10.0491C127.275 10.9655 125.402 11.4237 122.988 11.4237H121.365V15.9505C121.365 16.1243 121.299 16.2744 121.165 16.4008C121.032 16.5272 120.874 16.5904 120.691 16.5904H115.547C115.364 16.5904 115.206 16.5272 115.073 16.4008C114.94 16.2744 114.873 16.1243 114.873 15.9505V0.639917C114.873 0.466113 114.94 0.316009 115.073 0.189605C115.206 0.0632018 115.364 0 115.547 0ZM121.24 4.40832V7.03909H122.988C123.288 7.03909 123.554 6.93639 123.787 6.73098C124.02 6.50978 124.137 6.20167 124.137 5.80666C124.137 5.41165 124.045 5.07984 123.862 4.81123C123.679 4.54262 123.388 4.40832 122.988 4.40832H121.24Z" fill="#575458"/>
<path d="M133.421 0H137.941C138.124 0 138.282 0.0632018 138.415 0.189605C138.549 0.316009 138.615 0.466113 138.615 0.639917V7.11019L142.835 0.545115C143.052 0.181705 143.393 0 143.859 0H147.804C147.987 0 148.145 0.0632018 148.279 0.189605C148.412 0.316009 148.478 0.466113 148.478 0.639917V15.9505C148.478 16.1243 148.412 16.2744 148.279 16.4008C148.145 16.5272 147.987 16.5904 147.804 16.5904H143.285C143.101 16.5904 142.943 16.5272 142.81 16.4008C142.677 16.2744 142.61 16.1243 142.61 15.9505V10.0017L138.39 16.0453C138.141 16.4087 137.799 16.5904 137.367 16.5904H133.421C133.238 16.5904 133.08 16.5272 132.947 16.4008C132.814 16.2744 132.747 16.1243 132.747 15.9505V0.639917C132.747 0.466113 132.814 0.316009 132.947 0.189605C133.08 0.0632018 133.238 0 133.421 0Z" fill="#575458"/>
<path d="M153.991 10.4046C152.193 9.31435 151.294 7.82121 151.294 5.92516C151.294 4.01331 151.968 2.55177 153.317 1.54054C154.665 0.513514 156.538 0 158.935 0H166.326C166.509 0 166.667 0.0632018 166.801 0.189605C166.934 0.316009 167 0.466113 167 0.639917V15.9505C167 16.1243 166.934 16.2744 166.801 16.4008C166.667 16.5272 166.509 16.5904 166.326 16.5904H161.432C161.249 16.5904 161.091 16.5272 160.958 16.4008C160.824 16.2744 160.758 16.1243 160.758 15.9505V11.4237H159.734L157.587 15.9505C157.387 16.3771 157.029 16.5904 156.513 16.5904H151.394C151.244 16.5904 151.111 16.543 150.995 16.4482C150.895 16.3376 150.845 16.227 150.845 16.1164C150.845 16.0058 150.87 15.9031 150.92 15.8083L153.991 10.4046ZM160.758 6.92059V4.40832H158.935C158.552 4.40832 158.261 4.54262 158.061 4.81123C157.878 5.06404 157.786 5.36424 157.786 5.71185C157.786 6.05946 157.886 6.35177 158.086 6.58878C158.286 6.80998 158.569 6.92059 158.935 6.92059H160.758Z" fill="#575458"/>
</svg>
